<svg xmlns="http://www.w3.org/2000/svg" xmlns:xlink="http://www.w3.org/1999/xlink" width="300" zoomAndPan="magnify" viewBox="0 0 224.87999 225" height="300" preserveAspectRatio="xMidYMid meet" version="1.0"><defs><clipPath id="id1"><path d="M 0 0.0585938 L 224.761719 0.0585938 L 224.761719 224.9375 L 0 224.9375 Z M 0 0.0585938 " clip-rule="nonzero"/></clipPath><clipPath id="id2"><path d="M 27.546875 22.546875 L 197.707031 22.546875 L 197.707031 202.453125 L 27.546875 202.453125 Z M 27.546875 22.546875 " clip-rule="nonzero"/></clipPath><clipPath id="id3"><path d="M 55 22.546875 L 170 22.546875 L 170 44 L 55 44 Z M 55 22.546875 " clip-rule="nonzero"/></clipPath><clipPath id="id4"><path d="M 27.546875 22.546875 L 197.707031 22.546875 L 197.707031 94 L 27.546875 94 Z M 27.546875 22.546875 " clip-rule="nonzero"/></clipPath></defs><g clip-path="url(#id1)"><path fill="#ffffff" d="M 0 0.0585938 L 224.878906 0.0585938 L 224.878906 232.4375 L 0 232.4375 Z M 0 0.0585938 " fill-opacity="1" fill-rule="nonzero"/><path fill="#ffffff" d="M 0 0.0585938 L 224.878906 0.0585938 L 224.878906 224.941406 L 0 224.941406 Z M 0 0.0585938 " fill-opacity="1" fill-rule="nonzero"/><path fill="#ffffff" d="M 0 0.0585938 L 224.878906 0.0585938 L 224.878906 224.941406 L 0 224.941406 Z M 0 0.0585938 " fill-opacity="1" fill-rule="nonzero"/><path fill="#ffffff" d="M 0 0.0585938 L 224.878906 0.0585938 L 224.878906 224.941406 L 0 224.941406 Z M 0 0.0585938 " fill-opacity="1" fill-rule="nonzero"/></g><path fill="#fefdef" d="M 189.898438 199.882812 L 35.355469 199.882812 C 32.507812 199.882812 30.203125 197.582031 30.203125 194.742188 L 30.203125 48.25 C 30.203125 39.730469 37.121094 32.828125 45.660156 32.828125 L 179.597656 32.828125 C 188.132812 32.828125 195.050781 39.730469 195.050781 48.25 L 195.050781 194.742188 C 195.050781 197.582031 192.746094 199.882812 189.898438 199.882812 Z M 189.898438 199.882812 " fill-opacity="1" fill-rule="nonzero"/><path fill="#005477" d="M 179.597656 32.828125 L 45.660156 32.828125 C 37.121094 32.828125 30.203125 39.730469 30.203125 48.25 L 30.203125 71.378906 L 195.050781 71.378906 L 195.050781 48.25 C 195.050781 39.730469 188.132812 32.828125 179.597656 32.828125 Z M 52.097656 57.242188 C 49.25 57.242188 46.945312 54.945312 46.945312 52.105469 C 46.945312 49.265625 49.25 46.964844 52.097656 46.964844 C 54.945312 46.964844 57.25 49.265625 57.25 52.105469 C 57.25 54.945312 54.945312 57.242188 52.097656 57.242188 Z M 173.15625 57.242188 C 170.3125 57.242188 168.003906 54.945312 168.003906 52.105469 C 168.003906 49.265625 170.3125 46.964844 173.15625 46.964844 C 176 46.964844 178.308594 49.265625 178.308594 52.105469 C 178.308594 54.945312 176 57.242188 173.15625 57.242188 Z M 173.15625 57.242188 " fill-opacity="1" fill-rule="nonzero"/><g clip-path="url(#id2)"><path stroke-linecap="butt" transform="matrix(2.57573, 0, 0, 2.570057, -16.159127, -16.002839)" fill="none" stroke-linejoin="miter" d="M 79.999663 84.000337 L 19.999995 84.000337 C 18.894423 84.000337 17.999652 83.105111 17.999652 82.000138 L 17.999652 25.000551 C 17.999652 21.685631 20.68548 18.999954 24.000681 18.999954 L 76.000494 18.999954 C 79.314178 18.999954 82.000006 21.685631 82.000006 25.000551 L 82.000006 82.000138 C 82.000006 83.105111 81.105235 84.000337 79.999663 84.000337 Z M 79.999663 84.000337 " stroke="#1f212b" stroke-width="2" stroke-opacity="1" stroke-miterlimit="10"/></g><g clip-path="url(#id3)"><path stroke-linecap="round" transform="matrix(2.57573, 0, 0, 2.570057, -16.159127, -16.002839)" fill="none" stroke-linejoin="miter" d="M 46.999315 15.999656 L 46.999315 22.000252 M 40.999803 15.999656 L 40.999803 22.000252 M 35.000291 15.999656 L 35.000291 22.000252 M 28.999263 15.999656 L 28.999263 22.000252 M 53.000343 15.999656 L 53.000343 22.000252 M 58.999855 15.999656 L 58.999855 22.000252 M 64.999367 15.999656 L 64.999367 22.000252 M 71.000395 15.999656 L 71.000395 22.000252 " stroke="#1f212b" stroke-width="2" stroke-opacity="1" stroke-miterlimit="10"/></g><g clip-path="url(#id4)"><path stroke-linecap="butt" transform="matrix(2.57573, 0, 0, 2.570057, -16.159127, -16.002839)" fill="none" stroke-linejoin="miter" d="M 26.499972 24.500501 C 26.368031 24.500501 26.239123 24.51266 26.110216 24.538499 C 25.981308 24.564337 25.855434 24.602335 25.734109 24.652492 C 25.612784 24.702649 25.497526 24.763445 25.388333 24.836401 C 25.279141 24.909356 25.179048 24.992951 25.086538 25.085665 C 24.992511 25.17838 24.910617 25.280214 24.836305 25.388127 C 24.76351 25.49756 24.702848 25.613073 24.652802 25.734666 C 24.601239 25.856259 24.563325 25.980891 24.53906 26.110083 C 24.513278 26.239276 24.499629 26.368468 24.499629 26.5007 C 24.499629 26.631412 24.513278 26.762124 24.53906 26.889796 C 24.563325 27.018988 24.601239 27.143621 24.652802 27.265213 C 24.702848 27.386806 24.76351 27.502319 24.836305 27.611752 C 24.910617 27.719666 24.992511 27.8215 25.086538 27.914214 C 25.179048 28.006928 25.279141 28.090523 25.388333 28.163479 C 25.497526 28.236435 25.612784 28.297231 25.734109 28.347388 C 25.855434 28.397545 25.981308 28.435543 26.110216 28.461381 C 26.239123 28.487219 26.368031 28.499379 26.499972 28.499379 C 26.631913 28.499379 26.76082 28.487219 26.889728 28.461381 C 27.018635 28.435543 27.14451 28.397545 27.265835 28.347388 C 27.387159 28.297231 27.502418 28.236435 27.61161 28.163479 C 27.720803 28.090523 27.820896 28.006928 27.914922 27.914214 C 28.007433 27.8215 28.089327 27.719666 28.163638 27.611752 C 28.236433 27.502319 28.297096 27.386806 28.347142 27.265213 C 28.398705 27.143621 28.436619 27.018988 28.460884 26.889796 C 28.486666 26.762124 28.500315 26.631412 28.500315 26.5007 C 28.500315 26.368468 28.486666 26.239276 28.460884 26.110083 C 28.436619 25.980891 28.398705 25.856259 28.347142 25.734666 C 28.297096 25.613073 28.236433 25.49756 28.163638 25.388127 C 28.089327 25.280214 28.007433 25.17838 27.914922 25.085665 C 27.820896 24.992951 27.720803 24.909356 27.61161 24.836401 C 27.502418 24.763445 27.387159 24.702649 27.265835 24.652492 C 27.14451 24.602335 27.018635 24.564337 26.889728 24.538499 C 26.76082 24.51266 26.631913 24.500501 26.499972 24.500501 Z M 73.499686 24.500501 C 73.369262 24.500501 73.238838 24.51266 73.10993 24.538499 C 72.981023 24.564337 72.856665 24.602335 72.73534 24.652492 C 72.614015 24.702649 72.498756 24.763445 72.389564 24.836401 C 72.280372 24.909356 72.178762 24.992951 72.086252 25.085665 C 71.992225 25.17838 71.910331 25.280214 71.837536 25.388127 C 71.764741 25.49756 71.702562 25.613073 71.652516 25.734666 C 71.602469 25.856259 71.564555 25.980891 71.538774 26.110083 C 71.512992 26.239276 71.499343 26.368468 71.499343 26.5007 C 71.499343 26.631412 71.512992 26.762124 71.538774 26.889796 C 71.564555 27.018988 71.602469 27.143621 71.652516 27.265213 C 71.702562 27.386806 71.764741 27.502319 71.837536 27.611752 C 71.910331 27.719666 71.992225 27.8215 72.086252 27.914214 C 72.178762 28.006928 72.280372 28.090523 72.389564 28.163479 C 72.498756 28.236435 72.614015 28.297231 72.73534 28.347388 C 72.856665 28.397545 72.981023 28.435543 73.10993 28.461381 C 73.238838 28.487219 73.369262 28.499379 73.499686 28.499379 C 73.631627 28.499379 73.762051 28.487219 73.889442 28.461381 C 74.01835 28.435543 74.144224 28.397545 74.265549 28.347388 C 74.386874 28.297231 74.502132 28.236435 74.611325 28.163479 C 74.720517 28.090523 74.82061 28.006928 74.914637 27.914214 C 75.007147 27.8215 75.090558 27.719666 75.163353 27.611752 C 75.236147 27.502319 75.29681 27.386806 75.348373 27.265213 C 75.398419 27.143621 75.436333 27.018988 75.462115 26.889796 C 75.487896 26.762124 75.500029 26.631412 75.500029 26.5007 C 75.500029 26.368468 75.487896 26.239276 75.462115 26.110083 C 75.436333 25.980891 75.398419 25.856259 75.348373 25.734666 C 75.29681 25.613073 75.236147 25.49756 75.163353 25.388127 C 75.090558 25.280214 75.007147 25.17838 74.914637 25.085665 C 74.82061 24.992951 74.720517 24.909356 74.611325 24.836401 C 74.502132 24.763445 74.386874 24.702649 74.265549 24.652492 C 74.144224 24.602335 74.01835 24.564337 73.889442 24.538499 C 73.762051 24.51266 73.631627 24.500501 73.499686 24.500501 Z M 73.499686 24.500501 " stroke="#1f212b" stroke-width="1" stroke-opacity="1" stroke-miterlimit="10"/></g><path stroke-linecap="round" transform="matrix(2.57573, 0, 0, 2.570057, -16.159127, -16.002839)" fill="none" stroke-linejoin="miter" d="M 18.500117 33.499876 L 71.499343 33.499876 M 73.499686 33.499876 L 75.500029 33.499876 M 77.500372 33.499876 L 81.499541 33.499876 " stroke="#1f212b" stroke-width="1" stroke-opacity="1" stroke-miterlimit="10"/><path fill="#68869a" d="M 85.582031 125.351562 L 59.824219 125.351562 C 59.113281 125.351562 58.535156 124.773438 58.535156 124.066406 L 58.535156 98.363281 C 58.535156 97.65625 59.113281 97.078125 59.824219 97.078125 L 85.582031 97.078125 C 86.292969 97.078125 86.871094 97.65625 86.871094 98.363281 L 86.871094 124.066406 C 86.871094 124.773438 86.292969 125.351562 85.582031 125.351562 Z M 85.582031 125.351562 " fill-opacity="1" fill-rule="nonzero"/><path stroke-linecap="round" transform="matrix(2.57573, 0, 0, 2.570057, -16.159127, -16.002839)" fill="none" stroke-linejoin="round" d="M 39.499925 48.499847 L 39.499925 54.500444 L 29.499728 54.500444 L 29.499728 44.49945 L 36.500169 44.49945 M 44.500024 47.499748 L 70.49993 47.499748 M 61.500663 51.500146 L 66.499245 51.500146 M 44.500024 51.500146 L 58.49939 51.500146 " stroke="#1f212b" stroke-width="1" stroke-opacity="1" stroke-miterlimit="10"/><path stroke-linecap="round" transform="matrix(2.57573, 0, 0, 2.570057, -16.159127, -16.002839)" fill="none" stroke-linejoin="round" d="M 32.499484 48.499847 L 34.499826 51.500146 L 40.499338 43.49935 " stroke="#1f212b" stroke-width="1" stroke-opacity="1" stroke-miterlimit="10"/><path fill="#68869a" d="M 85.582031 171.609375 L 59.824219 171.609375 C 59.113281 171.609375 58.535156 171.035156 58.535156 170.328125 L 58.535156 144.625 C 58.535156 143.917969 59.113281 143.339844 59.824219 143.339844 L 85.582031 143.339844 C 86.292969 143.339844 86.871094 143.917969 86.871094 144.625 L 86.871094 170.328125 C 86.871094 171.035156 86.292969 171.609375 85.582031 171.609375 Z M 85.582031 171.609375 " fill-opacity="1" fill-rule="nonzero"/><path stroke-linecap="round" transform="matrix(2.57573, 0, 0, 2.570057, -16.159127, -16.002839)" fill="none" stroke-linejoin="round" d="M 39.499925 66.500117 L 39.499925 72.500714 L 29.499728 72.500714 L 29.499728 62.499719 L 36.500169 62.499719 " stroke="#1f212b" stroke-width="1" stroke-opacity="1" stroke-miterlimit="10"/><path stroke-linecap="round" transform="matrix(2.57573, 0, 0, 2.570057, -16.159127, -16.002839)" fill="none" stroke-linejoin="round" d="M 32.499484 66.500117 L 34.499826 69.500415 L 40.499338 61.49962 M 44.500024 65.500018 L 70.49993 65.500018 M 61.500663 69.500415 L 66.499245 69.500415 M 44.500024 69.500415 L 58.49939 69.500415 " stroke="#1f212b" stroke-width="1" stroke-opacity="1" stroke-miterlimit="10"/></svg>